<svg id="OBJECTS" xmlns="http://www.w3.org/2000/svg" viewBox="0 0 141.5 136.61"><defs><style>.cls-1{fill:#ffe3db;}.cls-2,.cls-3{fill:none;stroke:#000;}.cls-2{stroke-linecap:round;stroke-linejoin:round;stroke-width:3px;}.cls-3{stroke-linejoin:bevel;stroke-width:2px;}</style></defs><circle class="cls-1" cx="65.74" cy="70.87" r="65.74"/><circle class="cls-2" cx="414.71" cy="339.75" r="65.74" transform="translate(-459.22 120.24) rotate(-45)"/><rect class="cls-3" x="26.72" y="53.45" width="8.8" height="58.48"/><rect class="cls-3" x="112.21" y="53.45" width="8.8" height="58.48"/><rect class="cls-3" x="35.53" y="53.45" width="76.69" height="23.26"/><rect class="cls-3" x="35.53" y="76.71" width="76.69" height="23.26"/><line class="cls-3" x1="50.05" y1="65.08" x2="59.73" y2="65.08"/><line class="cls-3" x1="85.7" y1="65.08" x2="95.39" y2="65.08"/><line class="cls-3" x1="50.05" y1="88.34" x2="59.73" y2="88.34"/><line class="cls-3" x1="85.7" y1="88.34" x2="95.39" y2="88.34"/><line class="cls-3" x1="18.8" y1="53.45" x2="129.72" y2="53.45"/><line class="cls-3" x1="35.53" y1="104.88" x2="112.21" y2="104.88"/><rect class="cls-3" x="63.85" y="47.11" width="21.85" height="6.34"/><line class="cls-3" x1="74.26" y1="47.11" x2="85.7" y2="27.4"/><circle class="cls-3" cx="86.75" cy="25.29" r="2.7"/><line class="cls-3" x1="85.49" y1="23.32" x2="73.09" y2="17.52"/><path class="cls-3" d="M398.46,285.61,408.28,303l2-1.15a2.44,2.44,0,0,0,.92-3.32l-.2-.35a2.69,2.69,0,0,1,1-3.65l.5-.29a2.68,2.68,0,0,0,1-3.65l-2-3.45a2.68,2.68,0,0,0-3.65-1h0a2.67,2.67,0,0,1-3.65-1h0a2.44,2.44,0,0,0-3.32-.92Z" transform="translate(-340.45 -272.51)"/><path class="cls-3" d="M404.89,297a3.09,3.09,0,1,1-3-5.37" transform="translate(-340.45 -272.51)"/></svg>